<svg version="1.1" id="Layer_1" xmlns="http://www.w3.org/2000/svg" xmlns:xlink="http://www.w3.org/1999/xlink" x="0px" y="0px"
	 width="100%" viewBox="0 0 225 225" enable-background="new 0 0 225 225" xml:space="preserve">
<path fill="#D086F7" opacity="1.000000" stroke="none" 
	d="
M210.000000,1.000000 
	C215.324142,1.000000 220.648270,1.000000 225.965332,1.000003 
	C225.958252,76.000008 225.958252,151.000015 225.958252,226.000000 
	C220.925140,226.000000 215.933762,226.000000 210.471191,225.533340 
	C209.330917,219.374603 208.661850,213.682526 208.070801,207.527557 
	C208.171219,148.075241 208.194077,89.085808 208.214569,30.096371 
	C208.215607,27.097286 208.363205,24.082653 208.086502,21.108381 
	C208.001328,20.192778 206.731140,19.387426 206.145721,18.226065 
	C209.148529,16.643503 210.335251,14.574512 210.063950,11.336313 
	C209.777161,7.913117 209.999863,4.447236 210.000000,1.000000 
z"/>
<path fill="#9ED2FB" opacity="1.000000" stroke="none" 
	d="
M20.000000,226.000000 
	C13.677063,226.000000 7.354126,226.000000 1.049325,226.000000 
	C1.049325,150.999985 1.049325,75.999977 1.049325,1.000000 
	C8.419943,1.000000 15.741235,1.000000 23.535076,1.467364 
	C23.989859,7.491759 23.972088,13.048792 23.636421,18.653618 
	C22.894480,18.654169 22.470432,18.606928 21.930166,18.301821 
	C20.853149,18.307920 19.892353,18.571882 18.916189,18.867825 
	C18.900822,18.899801 18.837162,18.931143 18.593594,19.003115 
	C18.430801,19.730600 18.511576,20.386116 18.646946,21.451855 
	C18.531698,25.507627 18.216099,29.153086 18.213839,32.798737 
	C18.178871,89.179016 18.184578,145.559326 17.902546,202.221008 
	C17.073748,205.182098 15.397216,208.266159 19.994686,209.559570 
	C19.997841,215.347351 19.998920,220.673676 20.000000,226.000000 
z"/>
<path fill="#AEC2FC" opacity="1.000000" stroke="none" 
	d="
M43.000000,1.000000 
	C51.687565,1.000000 60.375126,1.000000 69.531227,1.467308 
	C70.003960,7.476581 70.008156,13.018545 69.551819,18.665306 
	C60.071697,18.714087 51.052116,18.658072 42.049980,18.206055 
	C42.378281,12.206703 42.689140,6.603352 43.000000,1.000000 
z"/>
<path fill="#B9A7F9" opacity="1.000000" stroke="none" 
	d="
M136.000000,226.000000 
	C127.645767,226.000000 119.291534,226.000000 110.468651,225.532745 
	C110.001419,219.536957 110.002838,214.008423 110.464775,208.382462 
	C119.286034,208.351196 127.646782,208.417343 136.005859,208.921112 
	C136.002808,214.905838 136.001404,220.452911 136.000000,226.000000 
z"/>
<path fill="#B0B6FA" opacity="1.000000" stroke="none" 
	d="
M70.012352,18.560511 
	C70.008156,13.018545 70.003960,7.476581 69.999878,1.467308 
	C76.687645,1.000000 83.375290,1.000000 90.531464,1.467261 
	C91.001495,7.465816 91.002991,12.997108 90.544418,18.630760 
	C83.393692,18.675583 76.703018,18.618048 70.012352,18.560511 
z"/>
<path fill="#B3B0FA" opacity="1.000000" stroke="none" 
	d="
M110.004257,208.479874 
	C110.002838,214.008423 110.001419,219.536957 110.000000,225.532745 
	C103.312355,226.000000 96.624710,226.000000 89.468712,225.532135 
	C88.990479,219.667740 88.980591,214.271240 89.329803,208.680679 
	C96.460686,208.484375 103.232468,208.482132 110.004257,208.479874 
z"/>
<path fill="#CB89F8" opacity="1.000000" stroke="none" 
	d="
M209.531464,1.000000 
	C209.999863,4.447236 209.777161,7.913117 210.063950,11.336313 
	C210.335251,14.574512 209.148529,16.643503 205.687973,18.316170 
	C201.059738,18.607656 197.031418,18.503513 192.957886,18.254061 
	C192.606415,18.205509 192.300171,18.302267 191.628189,18.500565 
	C190.510681,18.568766 189.758896,18.535425 189.005920,18.065359 
	C189.003143,12.085755 189.001572,6.542878 189.000000,1.000000 
	C195.687637,1.000000 202.375290,1.000000 209.531464,1.000000 
z"/>
<path fill="#CB89F8" opacity="1.000000" stroke="none" 
	d="
M207.992767,207.990448 
	C208.661850,213.682526 209.330917,219.374603 210.000000,225.533340 
	C203.312363,226.000000 196.624710,226.000000 189.468536,225.532562 
	C189.002930,219.735611 189.005859,214.406097 189.462646,209.051880 
	C192.961395,208.978470 196.006317,208.929779 199.476776,208.914368 
	C202.599152,208.628571 205.295975,208.309509 207.992767,207.990448 
z"/>
<path fill="#A9C6FB" opacity="1.000000" stroke="none" 
	d="
M54.000000,226.000000 
	C47.312355,226.000000 40.624710,226.000000 33.468742,225.532166 
	C33.000633,219.672043 33.000847,214.279770 33.469082,208.864944 
	C40.626156,208.854767 47.315208,208.867157 54.003761,209.354706 
	C54.002178,215.219910 54.001091,220.609955 54.000000,226.000000 
z"/>
<path fill="#AFB7FA" opacity="1.000000" stroke="none" 
	d="
M88.970703,208.874725 
	C88.980591,214.271240 88.990479,219.667740 89.000183,225.532135 
	C82.978844,226.000000 76.957695,226.000000 70.467850,225.543655 
	C69.670670,219.546280 69.342163,214.005264 69.471176,208.368805 
	C76.276024,208.473831 82.623360,208.674271 88.970703,208.874725 
z"/>
<path fill="#B4D3FC" opacity="1.000000" stroke="none" 
	d="
M42.531731,1.000000 
	C42.689140,6.603352 42.378281,12.206703 41.588245,18.310036 
	C35.390820,18.741951 29.672569,18.673887 23.954319,18.605824 
	C23.972088,13.048792 23.989859,7.491759 24.003815,1.467364 
	C30.021152,1.000000 36.042305,1.000000 42.531731,1.000000 
z"/>
<path fill="#C691F9" opacity="1.000000" stroke="none" 
	d="
M188.532059,1.000000 
	C189.001572,6.542878 189.003143,12.085755 188.545319,18.161884 
	C181.725784,18.632196 175.365662,18.569258 169.030945,18.142258 
	C169.704239,12.185465 170.352127,6.592732 171.000000,1.000000 
	C176.688034,1.000000 182.376083,1.000000 188.532059,1.000000 
z"/>
<path fill="#C297F9" opacity="1.000000" stroke="none" 
	d="
M172.000000,226.000000 
	C165.978851,226.000000 159.957703,226.000000 153.468277,225.532532 
	C153.002579,219.730362 153.005157,214.395691 153.474915,209.041946 
	C159.964172,209.037689 165.986221,209.052490 172.006058,209.530670 
	C172.002548,215.329376 172.001282,220.664688 172.000000,226.000000 
z"/>
<path fill="#C298F9" opacity="1.000000" stroke="none" 
	d="
M170.532059,1.000000 
	C170.352127,6.592732 169.704239,12.185465 168.572235,18.239899 
	C163.060257,18.639078 158.032379,18.576557 153.003906,18.076559 
	C153.002197,12.092721 153.001099,6.546360 153.000000,1.000000 
	C158.688034,1.000000 164.376083,1.000000 170.532059,1.000000 
z"/>
<path fill="#B3AFFA" opacity="1.000000" stroke="none" 
	d="
M91.004478,18.528400 
	C91.002991,12.997108 91.001495,7.465816 91.000000,1.467261 
	C96.354927,1.000000 101.709862,1.000000 107.532394,1.467268 
	C108.000587,7.467276 108.001175,13.000016 107.542694,18.634121 
	C101.723907,18.666458 96.364189,18.597429 91.004478,18.528400 
z"/>
<path fill="#B8A9FA" opacity="1.000000" stroke="none" 
	d="
M108.001762,18.532757 
	C108.001175,13.000016 108.000587,7.467276 108.000000,1.467268 
	C113.354927,1.000000 118.709862,1.000000 124.532394,1.467269 
	C125.000603,7.467506 125.001205,13.000476 124.542740,18.634781 
	C118.723022,18.668329 113.362396,18.600542 108.001762,18.532757 
z"/>
<path fill="#BE9EF9" opacity="1.000000" stroke="none" 
	d="
M153.007736,209.061005 
	C153.005157,214.395691 153.002579,219.730362 153.000000,225.532532 
	C147.645065,226.000000 142.290146,226.000000 136.467606,226.000000 
	C136.001404,220.452911 136.002808,214.905838 136.444122,208.827118 
	C139.555099,208.278717 142.226135,208.261948 145.053467,208.396088 
	C145.442719,208.729324 145.702744,208.856262 146.427979,208.946411 
	C148.913330,208.997025 150.960526,209.029007 153.007736,209.061005 
z"/>
<path fill="#C790F9" opacity="1.000000" stroke="none" 
	d="
M172.467606,226.000000 
	C172.001282,220.664688 172.002548,215.329376 172.472443,209.508820 
	C178.296967,209.041260 183.652878,209.058929 189.008789,209.076599 
	C189.005859,214.406097 189.002930,219.735611 189.000000,225.532562 
	C183.645065,226.000000 178.290146,226.000000 172.467606,226.000000 
z"/>
<path fill="#B1C3FB" opacity="1.000000" stroke="none" 
	d="
M69.013664,208.464233 
	C69.342163,214.005264 69.670670,219.546280 69.999588,225.543655 
	C64.977905,226.000000 59.955814,226.000000 54.466862,226.000000 
	C54.001091,220.609955 54.002178,215.219910 54.418671,209.319427 
	C59.560608,208.694077 64.287132,208.579147 69.013664,208.464233 
z"/>
<path fill="#BF9EF9" opacity="1.000000" stroke="none" 
	d="
M152.533875,1.000000 
	C153.001099,6.546360 153.002197,12.092721 152.546265,18.176746 
	C147.393982,18.653061 142.698730,18.591713 138.002838,18.091866 
	C138.001434,12.102244 138.000717,6.551122 138.000000,1.000000 
	C142.689255,1.000000 147.378510,1.000000 152.533875,1.000000 
z"/>
<path fill="#BBA4F9" opacity="1.000000" stroke="none" 
	d="
M137.536819,1.000000 
	C138.000717,6.551122 138.001434,12.102244 137.548065,18.192688 
	C133.063248,18.665823 129.032532,18.599634 125.001816,18.533445 
	C125.001205,13.000476 125.000603,7.467506 125.000000,1.467269 
	C129.024551,1.000000 133.049088,1.000000 137.536819,1.000000 
z"/>
<path fill="#A3CCFB" opacity="1.000000" stroke="none" 
	d="
M33.001060,208.887512 
	C33.000847,214.279770 33.000633,219.672043 33.000214,225.532166 
	C28.975456,226.000000 24.950911,226.000000 20.463184,226.000000 
	C19.998920,220.673676 19.997841,215.347351 20.363850,209.536102 
	C22.108667,208.822647 23.486399,208.594101 25.277649,208.313629 
	C28.127796,208.470306 30.564428,208.678909 33.001060,208.887512 
z"/>
<path fill="#FEFEFE" opacity="1.000000" stroke="none" 
	d="
M33.469082,208.864960 
	C30.564428,208.678909 28.127796,208.470306 24.876431,208.221741 
	C18.686480,209.318329 19.134954,204.968292 18.180861,201.939621 
	C18.184578,145.559326 18.178871,89.179016 18.213839,32.798737 
	C18.216099,29.153086 18.531698,25.507627 18.752216,21.109629 
	C18.814314,19.881832 18.825737,19.406487 18.837162,18.931143 
	C18.837162,18.931143 18.900822,18.899801 19.310173,18.892969 
	C20.495146,18.777319 21.270767,18.668501 22.046387,18.559685 
	C22.470432,18.606928 22.894480,18.654169 23.636421,18.653618 
	C29.672569,18.673887 35.390820,18.741951 41.570801,18.706036 
	C51.052116,18.658072 60.071697,18.714087 69.551819,18.665306 
	C76.703018,18.618048 83.393692,18.675583 90.544418,18.630760 
	C96.364189,18.597429 101.723907,18.666458 107.542694,18.634121 
	C113.362396,18.600542 118.723022,18.668329 124.542740,18.634781 
	C129.032532,18.599634 133.063248,18.665823 137.548737,18.631189 
	C142.698730,18.591713 147.393982,18.653061 152.546875,18.614223 
	C158.032379,18.576557 163.060257,18.639078 168.546829,18.603960 
	C175.365662,18.569258 181.725784,18.632196 188.546509,18.598610 
	C189.758896,18.535425 190.510681,18.568766 191.880737,18.570927 
	C192.667053,18.492952 192.835083,18.446161 193.003098,18.399368 
	C197.031418,18.503513 201.059738,18.607656 205.545807,18.621695 
	C206.731140,19.387426 208.001328,20.192778 208.086502,21.108381 
	C208.363205,24.082653 208.215607,27.097286 208.214569,30.096371 
	C208.194077,89.085808 208.171219,148.075241 208.070801,207.527557 
	C205.295975,208.309509 202.599152,208.628571 199.141724,208.667664 
	C180.923355,208.281219 163.465591,208.174759 145.725769,208.084930 
	C145.261551,208.149445 145.079361,208.197327 144.897186,208.245193 
	C142.226135,208.261948 139.555099,208.278717 136.445786,208.389481 
	C127.646782,208.417343 119.286034,208.351196 110.464775,208.382462 
	C103.232468,208.482132 96.460686,208.484375 89.329803,208.680679 
	C82.623360,208.674271 76.276024,208.473831 69.471176,208.368805 
	C64.287132,208.579147 59.560608,208.694077 54.419170,208.844269 
	C47.315208,208.867157 40.626156,208.854767 33.469082,208.864960 
M136.134247,179.516235 
	C136.416229,179.688568 136.698227,179.860901 137.433884,180.536133 
	C139.935669,181.743149 142.437454,182.950165 145.380188,184.670898 
	C147.844116,186.038391 150.168137,187.961838 152.808975,188.626511 
	C155.814194,189.382904 159.575378,190.059464 162.156006,188.890274 
	C165.974686,187.160172 167.820648,183.411209 166.918640,178.640747 
	C164.621323,166.490875 162.681503,154.273636 160.412888,142.118011 
	C159.681564,138.199463 159.462738,134.580231 162.891968,131.163696 
	C163.558975,130.440979 164.225967,129.718246 165.279495,128.440323 
	C169.213120,124.701675 173.146744,120.963020 177.710144,116.961723 
	C182.606842,112.307251 187.642319,107.788353 192.360062,102.959061 
	C196.812622,98.401237 194.975342,90.331650 189.109924,88.788422 
	C185.190445,87.757179 181.053955,87.550735 176.363434,86.533737 
	C172.559448,86.068565 168.755463,85.603386 164.261551,84.998596 
	C163.558701,84.983795 162.855865,84.968987 161.850708,84.665451 
	C161.627319,84.491234 161.374832,84.388779 160.330750,84.162643 
	C159.545273,84.139557 158.759796,84.116463 157.475403,83.872345 
	C156.629364,83.865761 155.783340,83.859184 154.347656,83.757858 
	C153.950470,83.732002 153.553284,83.706154 152.537140,83.265785 
	C147.853561,81.598915 141.552399,83.354691 138.965668,76.222404 
	C133.329941,65.091507 127.694199,53.960617 121.968498,42.131027 
	C120.507332,38.185005 117.820892,35.914268 113.472015,35.913258 
	C109.115257,35.912243 106.505608,38.310837 104.883301,42.113743 
	C103.918556,44.375217 102.892517,46.610550 101.393860,49.338131 
	C97.080795,57.941563 92.528076,66.436096 88.549629,75.191574 
	C86.360886,80.008385 84.028557,83.780151 77.146317,82.957451 
	C74.104408,83.375389 71.062492,83.793335 67.193588,84.157509 
	C60.501675,85.177101 53.809765,86.196693 46.370140,87.203712 
	C44.916309,87.489502 43.462479,87.775291 41.234360,87.995735 
	C36.982616,88.205437 34.037514,90.320526 32.586159,94.277885 
	C31.047646,98.472908 32.988152,101.625710 35.977909,104.386856 
	C39.006199,107.183594 41.997559,110.020332 45.480583,113.333496 
	C48.949512,116.566666 52.418442,119.799843 56.214844,123.621040 
	C58.557652,125.978432 60.640472,128.698837 63.304928,130.607132 
	C67.187683,133.388000 67.593948,136.889038 66.829254,141.063477 
	C64.894554,151.624878 62.818439,162.167709 61.241253,172.783661 
	C60.609135,177.038422 61.136501,181.465469 61.435440,186.461334 
	C65.106537,190.442978 68.999062,191.404877 73.765251,188.954193 
	C79.039558,186.242249 84.121437,183.156052 89.977219,180.097610 
	C92.952110,178.450317 95.927002,176.803040 99.438499,174.954590 
	C99.652100,174.646652 99.865707,174.338715 100.046219,174.094284 
	C100.046219,174.094284 100.107025,174.132156 100.854996,174.106064 
	C102.632576,173.350311 104.538803,172.802719 106.163086,171.798920 
	C110.639259,169.032654 115.101936,168.001175 119.901978,171.104050 
	C119.901978,171.104050 119.955620,171.057663 120.170410,171.452423 
	C120.385239,171.676437 120.645813,171.813431 121.542259,172.238052 
	C126.299126,174.546265 131.055984,176.854477 135.908035,179.145264 
	C135.908035,179.145264 135.940765,179.054184 136.134247,179.516235 
z"/>
<path fill="#B4D3FC" opacity="1.000000" stroke="none" 
	d="
M17.902546,202.221008 
	C19.134954,204.968292 18.686480,209.318329 24.462914,208.273682 
	C23.486399,208.594101 22.108667,208.822647 20.361774,209.074646 
	C15.397216,208.266159 17.073748,205.182098 17.902546,202.221008 
z"/>
<path fill="#B4D3FC" opacity="1.000000" stroke="none" 
	d="
M21.930166,18.301821 
	C21.270767,18.668501 20.495146,18.777319 19.325542,18.860992 
	C19.892353,18.571882 20.853149,18.307920 21.930166,18.301821 
z"/>
<path fill="#B4D3FC" opacity="1.000000" stroke="none" 
	d="
M18.593594,19.003115 
	C18.825737,19.406487 18.814314,19.881832 18.697620,20.699402 
	C18.511576,20.386116 18.430801,19.730600 18.593594,19.003115 
z"/>
<path fill="#C691F9" opacity="1.000000" stroke="none" 
	d="
M192.957886,18.254061 
	C192.835083,18.446161 192.667053,18.492952 192.246475,18.469383 
	C192.300171,18.302267 192.606415,18.205509 192.957886,18.254061 
z"/>
<path fill="#D8C8ED" opacity="1.000000" stroke="none" 
	d="
M146.007828,208.068298 
	C163.465591,208.174759 180.923355,208.281219 198.716171,208.634399 
	C196.006317,208.929779 192.961395,208.978470 189.462646,209.051880 
	C183.652878,209.058929 178.296967,209.041260 172.474670,209.045441 
	C165.986221,209.052490 159.964172,209.037689 153.474915,209.041931 
	C150.960526,209.029007 148.913330,208.997025 146.432602,208.731903 
	C145.999084,208.498749 146.007828,208.068298 146.007828,208.068298 
z"/>
<path fill="#D6D0F2" opacity="1.000000" stroke="none" 
	d="
M145.725769,208.084930 
	C146.007828,208.068298 145.999084,208.498749 145.994446,208.713272 
	C145.702744,208.856262 145.442719,208.729324 145.053467,208.396088 
	C145.079361,208.197327 145.261551,208.149445 145.725769,208.084930 
z"/>
<path fill="#C19CF8" opacity="1.000000" stroke="none" 
	d="
M162.338333,131.407715 
	C159.462738,134.580231 159.681564,138.199463 160.412888,142.118011 
	C162.681503,154.273636 164.621323,166.490875 166.918640,178.640747 
	C167.820648,183.411209 165.974686,187.160172 162.156006,188.890274 
	C159.575378,190.059464 155.814194,189.382904 152.808975,188.626511 
	C150.168137,187.961838 147.844116,186.038391 145.168671,184.056152 
	C144.367676,182.024506 143.778168,180.607590 143.624847,180.239059 
	C144.615433,177.633163 145.365921,175.831772 145.981461,173.985397 
	C146.483749,172.478745 146.324860,170.229691 147.325531,169.503220 
	C151.262543,166.645096 149.534210,163.698212 148.226303,160.130981 
	C147.301804,160.950485 146.711456,161.473785 146.060638,161.639038 
	C145.982529,160.557022 145.964890,159.833038 146.032150,158.768219 
	C147.433075,156.234299 149.592499,153.845459 144.641693,152.744293 
	C143.348755,146.594589 142.038681,140.783905 141.336227,134.900696 
	C141.042877,132.443741 141.145615,128.989761 142.606842,127.436966 
	C149.032761,120.608322 156.020554,114.308411 162.863510,108.204460 
	C164.535660,113.079506 166.149017,117.566963 167.975418,122.647003 
	C163.334976,122.248657 162.643555,125.255974 162.999695,129.000305 
	C163.000000,129.000000 163.000610,128.999390 162.658478,129.008972 
	C161.294037,129.559296 160.271729,130.100006 159.249420,130.640732 
	C159.443619,130.973419 159.637817,131.306107 159.832031,131.638794 
	C160.551682,131.422852 161.271347,131.206909 162.078735,131.094391 
	C162.166489,131.197830 162.338333,131.407715 162.338333,131.407715 
z"/>
<path fill="#B0B9FA" opacity="1.000000" stroke="none" 
	d="
M89.287109,180.232834 
	C84.121437,183.156052 79.039558,186.242249 73.765251,188.954193 
	C68.999062,191.404877 65.106537,190.442978 61.523247,185.964386 
	C65.469131,186.707458 69.216614,189.938553 72.427467,187.557983 
	C71.512138,184.943771 70.680992,183.502914 70.564880,182.006577 
	C70.413406,180.054276 70.964760,178.058838 70.976364,176.080566 
	C71.029663,167.001144 70.565338,157.894928 71.113358,148.848373 
	C71.760696,138.162430 68.961334,127.225601 73.569710,116.891739 
	C76.572617,119.466125 79.144211,122.085701 81.979057,124.379990 
	C86.037277,127.664368 86.480698,131.617599 85.444916,136.457474 
	C83.744904,144.401062 82.440071,152.436630 81.255066,160.475616 
	C81.061157,161.791122 82.336357,163.323181 83.128189,164.994278 
	C87.373985,164.016495 89.417244,164.543640 88.602112,169.704224 
	C88.066826,173.093140 89.007446,176.715195 89.287109,180.232834 
z"/>
<path fill="#ADBEFA" opacity="1.000000" stroke="none" 
	d="
M73.255981,116.791626 
	C68.961334,127.225601 71.760696,138.162430 71.113358,148.848373 
	C70.565338,157.894928 71.029663,167.001144 70.976364,176.080566 
	C70.964760,178.058838 70.413406,180.054276 70.564880,182.006577 
	C70.680992,183.502914 71.512138,184.943771 72.427467,187.557983 
	C69.216614,189.938553 65.469131,186.707458 61.373581,185.640778 
	C61.136501,181.465469 60.609135,177.038422 61.241253,172.783661 
	C62.818439,162.167709 64.894554,151.624878 66.829254,141.063477 
	C67.593948,136.889038 67.187683,133.388000 63.304928,130.607132 
	C60.640472,128.698837 58.557652,125.978432 56.424480,123.327087 
	C59.160259,124.515793 61.686401,125.998451 63.483494,127.053207 
	C61.807770,122.683548 59.363792,118.100548 58.384277,113.223434 
	C57.507549,108.858101 57.235168,103.865036 58.491047,99.688690 
	C60.740856,92.207115 58.686188,88.265999 50.924343,87.969040 
	C49.647781,87.920204 48.386303,87.477150 47.117851,87.216286 
	C53.809765,86.196693 60.501675,85.177101 67.720543,84.516068 
	C69.164810,86.799774 70.868195,88.740913 70.829422,90.646606 
	C70.757347,94.189064 69.669518,97.710861 68.665039,101.373810 
	C66.746307,101.794838 64.979034,101.748383 63.655254,102.491737 
	C62.799362,102.972328 62.592594,104.608917 62.129654,106.083534 
	C62.876770,106.925163 63.589180,107.410751 64.515427,108.052109 
	C65.170685,108.752640 65.612099,109.297386 66.105919,110.183067 
	C67.074532,111.029671 67.990746,111.535339 68.940269,112.033951 
	C68.973587,112.026901 68.958862,112.093407 68.986313,112.460510 
	C70.385025,114.177101 71.756279,115.526573 73.152412,116.843933 
	C73.177284,116.811821 73.255981,116.791626 73.255981,116.791626 
z"/>
<path fill="#B4B1F9" opacity="1.000000" stroke="none" 
	d="
M77.986893,82.976105 
	C84.028557,83.780151 86.360886,80.008385 88.549629,75.191574 
	C92.528076,66.436096 97.080795,57.941563 101.893204,49.279663 
	C106.707436,48.674309 106.799591,51.953987 106.903366,54.647682 
	C107.088394,59.451099 106.700462,64.276718 106.889755,69.079742 
	C106.929497,70.088089 108.428139,71.038933 109.162354,72.375061 
	C106.141647,78.704811 103.027138,84.593613 100.342041,90.672112 
	C98.098495,95.751053 94.669434,98.708176 89.003288,98.322327 
	C88.994331,86.534744 88.994095,86.535507 78.365738,83.292976 
	C78.220718,83.248741 78.112358,83.084396 77.986893,82.976105 
z"/>
<path fill="#B8ABF9" opacity="1.000000" stroke="none" 
	d="
M109.254517,72.016266 
	C108.428139,71.038933 106.929497,70.088089 106.889755,69.079742 
	C106.700462,64.276718 107.088394,59.451099 106.903366,54.647682 
	C106.799591,51.953987 106.707436,48.674309 102.143295,49.039413 
	C102.892517,46.610550 103.918556,44.375217 104.883301,42.113743 
	C106.505608,38.310837 109.115257,35.912243 113.472015,35.913258 
	C117.820892,35.914268 120.507332,38.185005 121.999702,42.916832 
	C122.689316,52.981365 123.269554,62.266655 124.046844,71.535416 
	C124.334221,74.962242 125.463791,78.429802 121.749001,80.774666 
	C119.033554,75.548531 116.586479,70.545135 113.784660,64.816429 
	C111.997536,67.656738 110.626022,69.836502 109.254517,72.016266 
z"/>
<path fill="#BBA6F7" opacity="1.000000" stroke="none" 
	d="
M122.017372,80.997398 
	C125.463791,78.429802 124.334221,74.962242 124.046844,71.535416 
	C123.269554,62.266655 122.689316,52.981365 122.044678,43.266182 
	C127.694199,53.960617 133.329941,65.091507 138.994629,76.602814 
	C139.023590,76.983215 138.933807,77.048882 138.627197,77.112076 
	C138.555099,78.113655 138.789627,79.052032 139.239059,80.183807 
	C139.634430,80.916779 139.814896,81.456360 139.633499,82.017700 
	C138.616806,82.442734 137.465179,82.767311 137.386856,83.261871 
	C136.829071,86.783768 136.156799,90.349106 136.249207,93.881569 
	C136.285294,95.261436 138.027939,97.551559 139.284592,97.772865 
	C143.786331,98.565636 148.412781,98.650269 153.105835,99.247467 
	C153.480652,99.964745 153.741699,100.437248 153.575714,100.939407 
	C147.428101,100.209892 141.702347,99.487175 135.988663,98.679153 
	C131.935730,98.106003 128.964447,96.000961 127.236069,92.213402 
	C125.524231,88.462074 123.759117,84.735069 122.017372,80.997398 
z"/>
<path fill="#A9C3FB" opacity="1.000000" stroke="none" 
	d="
M46.743996,87.209999 
	C48.386303,87.477150 49.647781,87.920204 50.924343,87.969040 
	C58.686188,88.265999 60.740856,92.207115 58.491047,99.688690 
	C57.235168,103.865036 57.507549,108.858101 58.384277,113.223434 
	C59.363792,118.100548 61.807770,122.683548 63.483494,127.053207 
	C61.686401,125.998451 59.160259,124.515793 56.260742,123.033081 
	C52.418442,119.799843 48.949512,116.566666 45.241501,112.692780 
	C44.542549,110.545166 44.514969,108.175041 43.543983,107.688789 
	C40.270679,106.049591 40.978325,103.391525 41.107994,100.851860 
	C41.325901,96.584068 41.700165,92.324257 42.008648,88.061081 
	C43.462479,87.775291 44.916309,87.489502 46.743996,87.209999 
z"/>
<path fill="#C593F8" opacity="1.000000" stroke="none" 
	d="
M162.999390,129.000610 
	C162.643555,125.255974 163.334976,122.248657 167.975418,122.647003 
	C166.149017,117.566963 164.535660,113.079506 162.914505,108.219696 
	C162.906693,107.847351 162.926315,107.949730 163.155579,107.793045 
	C163.556839,107.312111 163.728821,106.987854 163.970428,106.407898 
	C164.415497,105.800529 164.790939,105.448845 165.451523,105.220360 
	C166.653778,105.199745 167.570908,105.055939 168.488022,104.912140 
	C167.728424,104.254044 166.968842,103.595955 166.145844,102.933304 
	C166.082458,102.928741 166.016968,102.819801 165.920609,102.495155 
	C165.453949,100.890717 164.638535,99.551819 164.799118,98.342529 
	C165.232422,95.079239 166.081406,91.871147 166.744064,88.742050 
	C164.650681,88.049858 163.241837,87.584007 161.263947,86.930008 
	C162.964432,86.103722 163.957962,85.620964 164.951477,85.138206 
	C168.755463,85.603386 172.559448,86.068565 176.688751,87.183945 
	C178.454391,97.627686 178.554535,107.424248 177.080353,117.224365 
	C173.146744,120.963020 169.213120,124.701675 164.771332,128.718079 
	C163.841919,128.997421 163.420654,128.999023 162.999390,129.000610 
M168.446167,112.241005 
	C168.184082,112.057320 167.921982,111.873634 167.659897,111.689949 
	C167.827805,111.962402 167.995712,112.234848 168.446167,112.241005 
z"/>
<path fill="#B8ACF9" opacity="1.000000" stroke="none" 
	d="
M119.831306,171.098221 
	C115.101936,168.001175 110.639259,169.032654 106.163086,171.798920 
	C104.538803,172.802719 102.632576,173.350311 100.462357,173.732712 
	C100.821007,172.191772 101.343636,170.747208 102.363663,169.905151 
	C106.494270,166.495041 106.064766,161.725983 101.374123,159.191025 
	C100.347351,158.636108 99.666801,157.440567 99.049179,156.313843 
	C107.078773,150.428299 115.007614,146.210495 123.664688,154.146103 
	C119.928947,156.248764 120.572021,159.613556 121.748138,162.049255 
	C123.612801,165.910950 122.882195,168.590576 119.831306,171.098221 
z"/>
<path fill="#C88FF6" opacity="1.000000" stroke="none" 
	d="
M177.395248,117.093040 
	C178.554535,107.424248 178.454391,97.627686 177.014328,87.404678 
	C181.053955,87.550735 185.190445,87.757179 189.109924,88.788422 
	C194.975342,90.331650 196.812622,98.401237 192.360062,102.959061 
	C187.642319,107.788353 182.606842,112.307251 177.395248,117.093040 
M182.759201,106.445450 
	C182.942795,106.183502 183.126404,105.921555 183.310013,105.659615 
	C183.037704,105.827454 182.765396,105.995300 182.759201,106.445450 
z"/>
<path fill="#B0B9F9" opacity="1.000000" stroke="none" 
	d="
M77.566605,82.966782 
	C78.112358,83.084396 78.220718,83.248741 78.365738,83.292976 
	C88.994095,86.535507 88.994331,86.534744 88.587662,98.412872 
	C81.783516,99.715378 75.394035,100.478317 69.004562,101.241257 
	C69.669518,97.710861 70.757347,94.189064 70.829422,90.646606 
	C70.868195,88.740913 69.164810,86.799774 68.134041,84.542953 
	C71.062492,83.793335 74.104408,83.375389 77.566605,82.966782 
z"/>
<path fill="#BBA6F8" opacity="1.000000" stroke="none" 
	d="
M119.866638,171.101135 
	C122.882195,168.590576 123.612801,165.910950 121.748138,162.049255 
	C120.572021,159.613556 119.928947,156.248764 124.004333,154.257706 
	C128.763367,156.449036 132.897446,158.669418 137.023346,161.347778 
	C136.614410,167.591415 136.213638,173.377060 135.812851,179.162704 
	C131.055984,176.854477 126.299126,174.546265 121.116821,171.877655 
	C120.482658,171.305603 120.237404,171.152405 119.955620,171.057663 
	C119.955620,171.057663 119.901978,171.104050 119.866638,171.101135 
z"/>
<path fill="#B4B3F9" opacity="1.000000" stroke="none" 
	d="
M98.826813,156.540070 
	C99.666801,157.440567 100.347351,158.636108 101.374123,159.191025 
	C106.064766,161.725983 106.494270,166.495041 102.363663,169.905151 
	C101.343636,170.747208 100.821007,172.191772 100.088379,173.745758 
	C100.107025,174.132156 100.046219,174.094284 99.826355,174.203079 
	C99.371620,174.593170 99.136757,174.874466 98.901901,175.155762 
	C95.927002,176.803040 92.952110,178.450317 89.632164,180.165222 
	C89.007446,176.715195 88.066826,173.093140 88.602112,169.704224 
	C89.417244,164.543640 87.373985,164.016495 83.335556,164.741608 
	C87.818153,162.037155 92.289017,159.824539 96.912498,157.788483 
	C97.380875,157.602219 97.696625,157.239349 98.212807,156.784698 
	C98.413239,156.692917 98.826805,156.540070 98.826813,156.540070 
z"/>
<path fill="#C19BF7" opacity="1.000000" stroke="none" 
	d="
M164.606506,85.068405 
	C163.957962,85.620964 162.964432,86.103722 161.263947,86.930008 
	C163.241837,87.584007 164.650681,88.049858 166.744064,88.742050 
	C166.081406,91.871147 165.232422,95.079239 164.799118,98.342529 
	C164.638535,99.551819 165.453949,100.890717 165.515091,102.508331 
	C161.471542,102.200691 157.737137,101.555222 154.002747,100.909744 
	C153.741699,100.437248 153.480652,99.964745 153.392517,99.182320 
	C153.608353,98.291061 153.846390,97.272835 153.665710,97.192139 
	C148.846741,95.039825 147.972961,92.261024 151.763214,88.184280 
	C152.646729,87.233986 152.614838,85.432617 153.045105,83.938538 
	C153.086090,83.854225 153.156097,83.680298 153.156097,83.680298 
	C153.553284,83.706154 153.950470,83.732002 154.837097,84.040680 
	C156.209137,84.246796 157.091721,84.170082 157.974319,84.093369 
	C158.759796,84.116463 159.545273,84.139557 160.858337,84.401871 
	C161.615524,84.809326 161.871216,84.913689 162.153015,84.954178 
	C162.855865,84.968987 163.558701,84.983795 164.606506,85.068405 
z"/>
<path fill="#BFA1F9" opacity="1.000000" stroke="none" 
	d="
M135.860443,179.153992 
	C136.213638,173.377060 136.614410,167.591415 137.360107,161.463867 
	C139.650330,162.029434 141.536667,163.146255 143.575806,163.720551 
	C144.211975,163.899704 145.261047,162.612823 146.121109,161.997070 
	C146.711456,161.473785 147.301804,160.950485 148.226303,160.130981 
	C149.534210,163.698212 151.262543,166.645096 147.325531,169.503220 
	C146.324860,170.229691 146.483749,172.478745 145.981461,173.985397 
	C145.365921,175.831772 144.615433,177.633163 143.624847,180.239059 
	C143.778168,180.607590 144.367676,182.024506 144.948212,183.799301 
	C142.437454,182.950165 139.935669,181.743149 137.079086,180.077652 
	C136.510391,179.365295 136.249207,179.176971 135.940765,179.054184 
	C135.940765,179.054184 135.908035,179.145264 135.860443,179.153992 
z"/>
<path fill="#A9CAF9" opacity="1.000000" stroke="none" 
	d="
M41.621506,88.028412 
	C41.700165,92.324257 41.325901,96.584068 41.107994,100.851860 
	C40.978325,103.391525 40.270679,106.049591 43.543983,107.688789 
	C44.514969,108.175041 44.542549,110.545166 45.003757,112.445801 
	C41.997559,110.020332 39.006199,107.183594 35.977909,104.386856 
	C32.988152,101.625710 31.047646,98.472908 32.586159,94.277885 
	C34.037514,90.320526 36.982616,88.205437 41.621506,88.028412 
z"/>
<path fill="#C1AAEC" opacity="1.000000" stroke="none" 
	d="
M139.995361,81.995934 
	C139.814896,81.456360 139.634430,80.916779 139.231903,79.815659 
	C138.984512,78.519035 138.959167,77.783958 138.933807,77.048882 
	C138.933807,77.048882 139.023590,76.983215 139.071777,76.953934 
	C141.552399,83.354691 147.853561,81.598915 152.846619,83.473038 
	C153.156097,83.680298 153.086090,83.854225 152.627960,83.929428 
	C150.779602,84.001663 149.389404,83.998695 147.624390,83.995209 
	C146.500031,83.994423 145.750458,83.994156 144.657806,83.943047 
	C142.874954,83.260109 141.435150,82.628021 139.995361,81.995934 
z"/>
<path fill="#C1AAEC" opacity="1.000000" stroke="none" 
	d="
M157.724854,83.982857 
	C157.091721,84.170082 156.209137,84.246796 155.131927,84.088058 
	C155.783340,83.859184 156.629364,83.865761 157.724854,83.982857 
z"/>
<path fill="#C19CF8" opacity="1.000000" stroke="none" 
	d="
M162.999695,129.000305 
	C163.420654,128.999023 163.841919,128.997421 164.578064,128.995667 
	C164.225967,129.718246 163.558975,130.440979 162.615143,131.285706 
	C162.338333,131.407715 162.166489,131.197830 162.199249,130.842590 
	C162.488220,129.991379 162.744415,129.495377 163.000610,128.999390 
	C163.000610,128.999390 163.000000,129.000000 162.999695,129.000305 
z"/>
<path fill="#BBA6F8" opacity="1.000000" stroke="none" 
	d="
M136.037506,179.285217 
	C136.249207,179.176971 136.510391,179.365295 136.852249,179.826202 
	C136.698227,179.860901 136.416229,179.688568 136.037506,179.285217 
z"/>
<path fill="#B8ACF9" opacity="1.000000" stroke="none" 
	d="
M99.170197,175.055176 
	C99.136757,174.874466 99.371620,174.593170 99.842896,174.171326 
	C99.865707,174.338715 99.652100,174.646652 99.170197,175.055176 
z"/>
<path fill="#B8ACF9" opacity="1.000000" stroke="none" 
	d="
M120.063019,171.255035 
	C120.237404,171.152405 120.482658,171.305603 120.821762,171.690323 
	C120.645813,171.813431 120.385239,171.676437 120.063019,171.255035 
z"/>
<path fill="#C1AAEC" opacity="1.000000" stroke="none" 
	d="
M162.001862,84.809814 
	C161.871216,84.913689 161.615524,84.809326 161.239594,84.499588 
	C161.374832,84.388779 161.627319,84.491234 162.001862,84.809814 
z"/>
<path fill="#FEFEFE" opacity="1.000000" stroke="none" 
	d="
M146.060638,161.639038 
	C145.261047,162.612823 144.211975,163.899704 143.575806,163.720551 
	C141.536667,163.146255 139.650330,162.029434 137.368256,161.005890 
	C132.897446,158.669418 128.763367,156.449036 124.289650,154.117050 
	C115.007614,146.210495 107.078773,150.428299 99.049179,156.313843 
	C98.826805,156.540070 98.413239,156.692917 97.974762,156.852921 
	C97.232460,157.154251 96.973656,157.353912 96.759872,157.611908 
	C92.289017,159.824539 87.818153,162.037155 83.139931,164.502472 
	C82.336357,163.323181 81.061157,161.791122 81.255066,160.475616 
	C82.440071,152.436630 83.744904,144.401062 85.444916,136.457474 
	C86.480698,131.617599 86.037277,127.664368 81.979057,124.379990 
	C79.144211,122.085701 76.572617,119.466125 73.569710,116.891739 
	C73.255981,116.791626 73.177284,116.811821 73.097229,116.521408 
	C71.664406,114.851807 70.311638,113.472603 68.958862,112.093407 
	C68.958862,112.093407 68.973587,112.026901 68.803391,111.751099 
	C67.773300,110.930901 66.913406,110.386513 66.053513,109.842133 
	C65.612099,109.297386 65.170685,108.752640 64.378464,107.760269 
	C63.383419,106.784256 62.739185,106.255867 62.094948,105.727486 
	C62.592594,104.608917 62.799362,102.972328 63.655254,102.491737 
	C64.979034,101.748383 66.746307,101.794838 68.665039,101.373810 
	C75.394035,100.478317 81.783516,99.715378 88.588615,98.861893 
	C94.669434,98.708176 98.098495,95.751053 100.342041,90.672112 
	C103.027138,84.593613 106.141647,78.704811 109.162346,72.375061 
	C110.626022,69.836502 111.997536,67.656738 113.784660,64.816429 
	C116.586479,70.545135 119.033554,75.548531 121.749001,80.774666 
	C123.759117,84.735069 125.524231,88.462074 127.236069,92.213402 
	C128.964447,96.000961 131.935730,98.106003 135.988663,98.679153 
	C141.702347,99.487175 147.428101,100.209892 153.575714,100.939407 
	C157.737137,101.555222 161.471542,102.200691 165.611450,102.832977 
	C166.016968,102.819801 166.082458,102.928741 166.039062,103.216003 
	C165.719238,104.034561 165.442810,104.565865 165.166382,105.097168 
	C164.790939,105.448845 164.415497,105.800529 163.738556,106.567444 
	C163.266815,107.305031 163.096573,107.627380 162.926315,107.949730 
	C162.926315,107.949730 162.906693,107.847351 162.855698,107.832108 
	C156.020554,114.308411 149.032761,120.608322 142.606842,127.436966 
	C141.145615,128.989761 141.042877,132.443741 141.336227,134.900696 
	C142.038681,140.783905 143.348755,146.594589 144.646729,153.140762 
	C145.235672,155.601013 145.591461,157.355042 145.947250,159.109070 
	C145.964890,159.833038 145.982529,160.557022 146.060638,161.639038 
z"/>
<path fill="#BFA1F9" opacity="1.000000" stroke="none" 
	d="
M146.032150,158.768219 
	C145.591461,157.355042 145.235672,155.601013 144.874847,153.450516 
	C149.592499,153.845459 147.433075,156.234299 146.032150,158.768219 
z"/>
<path fill="#C593F8" opacity="1.000000" stroke="none" 
	d="
M162.658478,129.008972 
	C162.744415,129.495377 162.488220,129.991379 162.111511,130.739166 
	C161.271347,131.206909 160.551682,131.422852 159.832031,131.638794 
	C159.637817,131.306107 159.443619,130.973419 159.249420,130.640732 
	C160.271729,130.100006 161.294037,129.559296 162.658478,129.008972 
z"/>
<path fill="#B0B9FA" opacity="1.000000" stroke="none" 
	d="
M68.986313,112.460510 
	C70.311638,113.472603 71.664406,114.851807 73.072357,116.553528 
	C71.756279,115.526573 70.385025,114.177101 68.986313,112.460510 
z"/>
<path fill="#B0B9FA" opacity="1.000000" stroke="none" 
	d="
M66.105919,110.183067 
	C66.913406,110.386513 67.773300,110.930901 68.770073,111.758148 
	C67.990746,111.535339 67.074532,111.029671 66.105919,110.183067 
z"/>
<path fill="#B0B9FA" opacity="1.000000" stroke="none" 
	d="
M62.129654,106.083534 
	C62.739185,106.255867 63.383419,106.784256 64.164627,107.604485 
	C63.589180,107.410751 62.876770,106.925163 62.129654,106.083534 
z"/>
<path fill="#BF9FF9" opacity="1.000000" stroke="none" 
	d="
M139.633499,82.017700 
	C141.435150,82.628021 142.874954,83.260109 144.669693,84.301285 
	C145.469803,85.697380 145.914978,86.684402 146.360153,87.671417 
	C146.730438,87.596573 147.100723,87.521729 147.471008,87.446877 
	C147.647079,86.296494 147.823135,85.146111 147.999191,83.995728 
	C149.389404,83.998695 150.779602,84.001663 152.586975,84.013741 
	C152.614838,85.432617 152.646729,87.233986 151.763214,88.184280 
	C147.972961,92.261024 148.846741,95.039825 153.665710,97.192139 
	C153.846390,97.272835 153.608353,98.291061 153.278748,98.937546 
	C148.412781,98.650269 143.786331,98.565636 139.284592,97.772865 
	C138.027939,97.551559 136.285294,95.261436 136.249207,93.881569 
	C136.156799,90.349106 136.829071,86.783768 137.386856,83.261871 
	C137.465179,82.767311 138.616806,82.442734 139.633499,82.017700 
z"/>
<path fill="#BF9FF9" opacity="1.000000" stroke="none" 
	d="
M138.627197,77.112076 
	C138.959167,77.783958 138.984512,78.519035 139.016998,79.622261 
	C138.789627,79.052032 138.555099,78.113655 138.627197,77.112076 
z"/>
<path fill="#C19BF7" opacity="1.000000" stroke="none" 
	d="
M165.451523,105.220360 
	C165.442810,104.565865 165.719238,104.034561 166.102448,103.220566 
	C166.968842,103.595955 167.728424,104.254044 168.488022,104.912140 
	C167.570908,105.055939 166.653778,105.199745 165.451523,105.220360 
z"/>
<path fill="#C19CF8" opacity="1.000000" stroke="none" 
	d="
M168.304901,112.374153 
	C167.995712,112.234848 167.827805,111.962402 167.659897,111.689949 
	C167.921982,111.873634 168.184082,112.057320 168.304901,112.374153 
z"/>
<path fill="#C19CF8" opacity="1.000000" stroke="none" 
	d="
M163.155579,107.793045 
	C163.096573,107.627380 163.266815,107.305031 163.668930,106.823135 
	C163.728821,106.987854 163.556839,107.312111 163.155579,107.793045 
z"/>
<path fill="#C593F8" opacity="1.000000" stroke="none" 
	d="
M182.626144,106.304291 
	C182.765396,105.995300 183.037704,105.827454 183.310013,105.659607 
	C183.126404,105.921555 182.942795,106.183502 182.626144,106.304291 
z"/>
<path fill="#B8ACF9" opacity="1.000000" stroke="none" 
	d="
M96.912498,157.788483 
	C96.973656,157.353912 97.232460,157.154251 97.774330,156.944702 
	C97.696625,157.239349 97.380875,157.602219 96.912498,157.788483 
z"/>
<path fill="#C19BF7" opacity="1.000000" stroke="none" 
	d="
M147.624390,83.995209 
	C147.823135,85.146111 147.647079,86.296494 147.471008,87.446877 
	C147.100723,87.521729 146.730438,87.596573 146.360153,87.671417 
	C145.914978,86.684402 145.469803,85.697380 145.012756,84.352127 
	C145.750458,83.994156 146.500031,83.994423 147.624390,83.995209 
z"/>
</svg>